#!OML:ASF E:\Style4\Style4.ASF
:FULLY-SPECIFIED
:DEGREES
1861
root 0.873259 18.0837 0.88673 6.59762 6.13868 2.72223
lowerback 2.89884 2.05564 -2.27259
upperback -3.10322 2.6062 -0.637792
thorax -4.90479 1.36343 0.425348
lowerneck -0.496825 -0.28416 -2.48194
upperneck 0.352037 -0.381046 4.35383
head 0.206647 -0.182074 1.76942
rclavicle -6.72234e-014 1.27222e-014
rhumerus -42.8237 10.8516 -95.4332
rradius 44.2494
rwrist -4.92109
rhand 5.95439 -3.1135
rfingers 7.12502
rthumb 31.2799 -30.4613
lclavicle -6.72234e-014 1.27222e-014
lhumerus -46.0394 -19.0782 96.7609
lradius 52.1817
lwrist 4.98913
lhand 10.6984 41.6341
lfingers 7.12502
lthumb 35.7885 68.0023
rfemur -4.22995 7.42506 15.1535
rtibia 17.2304
rfoot -18.6455 -21.0971
rtoes -9.1478
lfemur -4.93894 -8.22872 -24.3554
ltibia 14.7566
lfoot -16.0338 7.40797
ltoes -11.8951
1862
root 0.871602 18.091 0.866314 6.77455 6.15234 2.79569
lowerback 2.96087 2.0471 -2.34502
upperback -3.12825 2.58767 -0.664193
thorax -4.96807 1.35684 0.436703
lowerneck -0.868829 -0.303014 -2.43557
upperneck 0.434234 -0.403017 4.2765
head 0.295308 -0.188625 1.73613
rclavicle 4.8901e-014 -1.98785e-015
rhumerus -42.895 10.8769 -95.4499
rradius 44.3013
rwrist -4.68474
rhand 6.01425 -3.0345
rfingers 7.12502
rthumb 31.3369 -30.3712
lclavicle 4.8901e-014 -1.98785e-015
lhumerus -46.1432 -19.133 96.8196
lradius 52.2803
lwrist 5.08379
lhand 10.5977 41.7384
lfingers 7.12502
lthumb 35.693 68.1297
rfemur -4.4333 7.47317 15.0267
rtibia 17.0613
rfoot -18.6001 -21.1483
rtoes -8.81193
lfemur -5.118 -8.25207 -24.396
ltibia 14.5861
lfoot -15.8024 7.41171
ltoes -12.0481
1863
root 0.871478 18.0997 0.84491 6.95423 6.17513 2.75099
lowerback 3.03271 2.0347 -2.27597
upperback -3.16504 2.57231 -0.660738
thorax -5.04393 1.3475 0.399162
lowerneck -1.25689 -0.301374 -2.48014
upperneck 0.522354 -0.396984 4.29278
head 0.388315 -0.180833 1.74961
rclavicle -3.23025e-016 -4.17448e-015
rhumerus -42.9392 10.9317 -95.4656
rradius 44.3432
rwrist -4.53747
rhand 6.12705 -2.99814
rfingers 7.12502
rthumb 31.4444 -30.314
lclavicle -3.23025e-016 -4.17448e-015
lhumerus -46.3047 -19.1597 96.8832
lradius 52.4043
lwrist 5.2258
lhand 10.4222 41.8017
lfingers 7.12502
lthumb 35.5266 68.2331
rfemur -4.59708 7.39235 15.0427
rtibia 16.9027
rfoot -18.2656 -21.1178
rtoes -8.88099
lfemur -5.28566 -8.31491 -24.3212
ltibia 14.3818
lfoot -15.5843 7.50513
ltoes -12.4032
1864
root 0.870551 18.1094 0.825061 7.08128 6.18175 2.67788
lowerback 3.13444 2.02574 -2.19388
upperback -3.17777 2.56236 -0.645877
thorax -5.11179 1.34026 0.365219
lowerneck -1.65492 -0.289831 -2.48893
upperneck 0.593405 -0.377037 4.2699
head 0.477084 -0.16624 1.74453
rclavicle -3.41972e-014 2.98177e-015
rhumerus -43.0056 10.9742 -95.4878
rradius 44.4301
rwrist -4.52588
rhand 6.29354 -3.04918
rfingers 7.12502
rthumb 31.603 -30.334
lclavicle -3.41972e-014 2.98177e-015
lhumerus -46.4168 -19.1217 96.9007
lradius 52.4496
lwrist 5.24631
lhand 10.3562 41.6624
lfingers 7.12502
lthumb 35.4641 68.1088
rfemur -4.67866 7.42828 15.1035
rtibia 16.7032
rfoot -17.9561 -21.1704
rtoes -9.29252
lfemur -5.42632 -8.31754 -24.2158
ltibia 14.2131
lfoot -15.4139 7.54901
ltoes -12.7706
